<svg xmlns="http://www.w3.org/2000/svg" viewBox="0 0 48 48"><path fill="#231f20" d="M47.85 9.47c-4.64-7.47-4.4-7.31-5.06-7.38S42.33 2 36.31 8a1 1 0 0 0 0 1.41l.71.71L34.19 13l-1.09-1.11a3.06 3.06 0 0 0-4.24 0c-16.73 16.72-16.44 16-16.44 17.67 0 1.49.89 2.13 2 3.22l-2.83 2.83-2.85-2.83a1 1 0 0 0-1.39 0l-7 6.52A1 1 0 0 0 1 41c.55 0 .19.19 7-6.13l2.86 2.86a1 1 0 0 0 1.41 0l3.54-3.54 1.41 1.42-5.66 5.65-2.82-2.82a1 1 0 0 0-1.41 0l-7 6.85A1 1 0 0 0 1 47c.57 0 .22.19 7-6.45l2.84 2.83a1 1 0 0 0 1.41 0L18.64 37l1.09 1.09a3 3 0 0 0 4.24 0c16.72-16.7 16.44-15.93 16.44-17.65 0-1.49-.89-2.13-2-3.22l2.83-2.83.71.71a1 1 0 0 0 1.42 0l4.32-4.39a1 1 0 0 0 .16-1.24Zm-9.74 11.67L22.56 36.7a1 1 0 0 1-1.42 0l-6.43-6.43a1 1 0 0 1 0-1.41C31.51 12.06 30.38 13 31 13s.11-.31 7.13 6.72a1 1 0 0 1-.02 1.42ZM37 15.81l-1.41-1.42 2.82-2.83L39.85 13ZM42.67 13l-4.24-4.26 4.07-4.06 3.23 5.18Z" data-name="Exhaust System"/></svg>